<svg version="1.1" xmlns="http://www.w3.org/2000/svg" xmlns:xlink="http://www.w3.org/1999/xlink" width="84.000000pt" height="84.000000pt" viewBox="0,0,256,256"><g transform=""><g fill="#ffd700" fill-rule="nonzero" stroke="none" stroke-width="1" stroke-linecap="butt" stroke-linejoin="miter" stroke-miterlimit="10" stroke-dasharray="" stroke-dashoffset="0" font-family="none" font-weight="none" font-size="none" text-anchor="none" style="mix-blend-mode: normal"><g transform="translate(4.64026,4.8381) scale(3.04762,3.04762)"><g transform="translate(0,84) scale(0.1,-0.1)"><path d="M499,696c13,-7 29,-29 35,-47c22,-67 106,-58 106,11c0,41 -17,50 -94,50c-65,-1 -69,-2 -47,-14z"></path><path d="M350,599c-80,-23 -149,-44 -154,-49c-5,-5 -6,-19 -2,-32c4,-16 35,-39 111,-81c58,-32 105,-63 105,-69c0,-6 -14,-35 -31,-64c-31,-56 -35,-89 -9,-89c13,0 110,148 110,168c0,7 -30,27 -136,91l-49,29l40,12c22,7 55,16 72,19c30,7 32,6 30,-21l-2,-28h115c108,0 115,1 115,20c0,18 -8,20 -82,23c-46,2 -83,6 -83,11c0,4 9,16 20,26c25,23 26,51 1,65c-11,5 -21,10 -23,9c-2,0 -68,-18 -148,-40z"></path><path d="M105,441c-53,-32 -68,-58 -73,-119c-3,-47 0,-63 20,-92c61,-91 182,-91 250,0c88,119 -71,289 -197,211z"></path><path d="M561,442c-99,-50 -108,-195 -15,-252c52,-33 96,-36 147,-11c111,54 115,208 6,263c-43,23 -95,23 -138,0z"></path></g></g></g></g></svg>